<svg xmlns="http://www.w3.org/2000/svg" viewBox="-29 31 40 40" enable-background="new -29 31 40 40"><style type="text/css">.st0{fill:#010202;}</style><path id="XMLID_40_" d="M8.5 58.3c-.3 0-.2.3-.3.5-2.7 5.7-7 9.3-13.1 10.8-4.9 1.2-9.6.6-13.9-1.9-5.6-3.3-8.9-8.2-9.7-14.6-1-8.3 3.3-16 10.7-19.8 8.3-4.2 18.5-2 24.3 5.3 1.7 2.2 3.2 4.6 3.7 7.4.8 4.5.6 8.9-1.2 13.1-1.8 4.1-4.6 7.2-8.4 9.4-2.9 1.7-6 2.5-9.4 2.3.9 0 1.8 0 2.6-.3 1.6-.6 3.3-.9 4.8-1.6 1.6-.7 3-1.6 4.4-2.7 1.3-1.1 2.5-2.4 3.5-3.8.7-1.3 1.4-2.7 2-4.1.2-.2.2-.5.3-.7 1.2-3.3 1.4-6.9.7-10.3-1-4.7-3.4-8.6-7.4-11.4-4.2-3-8.8-4.2-13.9-3.4-7.1 1.1-12.1 5-14.7 11.7-2.4 6.3-1.6 12.3 2.4 17.7 3.5 4.8 8.4 7.2 14.3 7.5 4.6.2 8.6-1.3 12.1-4.3 3.6-3 5.7-6.9 6.5-11.5.1-.8.2-1.6.2-2.4h.1c0 4.2-1.3 7.9-3.7 11.3 1.4-1.6 2.4-3.5 3.1-5.6.3.6-.1.9 0 1.4z" class="st0"/><path id="XMLID_42_" d="M-15.6 51.7c-.2-.1-.4-.1-.6-.2-.2 0-.4-.1-.5-.3-.4-.4-.7-.8-.9-1.3s-.4-1-.5-1.5c0-.3 0-.6 0-.9.1-.4.2-.7.3-1.1.1-.3.3-.7.4-1s.3-.5.5-.8c.2-.4.6-.7.9-.8.3-.1.7-.2 1-.2.4 0 .7.2 1 .4s.7.4 1 .7c.1.1.3.3.4.4.1.1.3.3.3.5.2.5.4 1 .4 1.6.1.6 0 1.2-.1 1.8s-.3 1.1-.6 1.6-.7.8-1.2 1c-.3.1-.6.2-.9.2-.3 0-.6 0-.9-.1.1.1.1 0 0 0zm-2-4.3c0 .1 0 .3 0 .4l.1-.1.1-.1.8-.8c0-.1 0-.2.1-.4 0-.1 0-.3.1-.4 0-.1.1-.2.1-.5.1-.2.2-.4.3-.6.1-.2.2-.3.3-.5.1-.1.3-.2.4-.2.2 0 .3.1.5.2.1.1.3.2.4.3h.1s.1 0 .1-.1c0 0 .1 0 .1-.1l-.1-.1s-.1 0-.1-.1l-.3-.1-.3-.1c-.3-.1-.7 0-.9.2-.3.3-.6.6-.8.9-.2.4-.4.7-.6 1.1-.2.4-.3.7-.4 1.1zm.3 2.4c0 .1.1.2.2.2 0 0 .1 0 .2 0s.1-.1.2-.1c.1-.1.1-.1.2-.2 0 0 0 0 .1 0 0 0 0 0 .1 0v-.2c-.1-.3-.1-.5-.2-.7 0-.2-.1-.5-.1-.7-.5.2-.8.5-.9.7-.2.2-.1.5.2 1zm-.2-1.5c0 .1 0 .2 0 .2 0-.1.1-.1 0-.2.1 0 0 0 0 0zm.5-.5c-.1 0-.1.1-.1.1l-.1.1c.1 0 .2-.1.2-.2zm.2-.1c.1-.1.2-.2.1-.2h-.1c0 .1 0 .1 0 .2zm.3 3c.1 0 .1-.1.2-.1s.1-.1.2-.1v-.1s0-.1-.1-.1l-.3.4zm1.3-.2c.1.1.3.1.4.1.1 0 .2-.1.3-.2.1-.1.1-.2.2-.3 0-.1.1-.3.1-.4s.1-.2.1-.3 0-.2 0-.2l.2-2.5c0-.3 0-.5-.1-.8-.1-.2-.3-.5-.4-.7-.2-.3-.5-.4-.7-.3-.3.2-.5.4-.6.7-.2.4-.3.8-.4 1.3s-.1 1-.1 1.5.1.9.3 1.4c.2.4.4.6.7.7zm-.2.7c.1 0 .2.1.3.1s.2 0 .3-.1c-.2 0-.5-.1-.7-.2s-.4-.3-.6-.5c0 .1 0 .2 0 .3 0 0 0 .1-.1.1 0 0 0 .1.1.1.2 0 .4.1.7.2zm-.1 7.3c.1-.1.1-.1 0 0 .1-.2.2-.3.3-.4l.3-.4c.1-.1.2-.3.3-.4l.1-.2.4-.6c.2-.3.4-.6.6-.9.2-.3.4-.7.6-.9.2-.3.3-.5.4-.6l.1-.1c0-.1.1-.2.2-.3s.2-.2.3-.4c.1-.1.2-.3.3-.4s.1-.2.2-.3l.4-.5.6-.8c.2-.3.4-.5.6-.8.2-.2.3-.4.3-.5.1-.1.2-.3.4-.6l.6-.9c.2-.3.4-.6.6-.9.2-.3.3-.5.4-.6h.1s.1-.1.2-.2.1-.2.2-.3l.2-.3c0-.1.1-.1.1-.2 0 0 .1-.1.2-.3s.2-.3.3-.5.2-.4.3-.5c.1-.1.1-.3.2-.3l.2-.3c.1-.1.1-.2.2-.3h.1c.1 0 .3 0 .5 0 .1 0 .3 0 .4.1.1 0 .2.1.3.2.1.1.1.3.1.5s-.1.5-.3.7c-.1.2-.3.4-.5.6-.2.2-.3.4-.5.6s-.3.4-.5.6c-.5.8-.9 1.5-1.4 2.3-.5.8-.9 1.5-1.5 2.2 0 .1-.2.2-.4.5s-.4.6-.7.9c-.2.3-.5.6-.7.9-.2.3-.3.4-.4.5-.2.3-.4.6-.6 1-.1.3-.3.7-.5 1 0 .1-.1.2-.2.3l-.3.4c-.1.1-.2.3-.2.4 0 .1-.1.1-.1.2 0 0-.1.1-.2.3-.1.1-.2.3-.4.5l-.4.4c-.1.1-.2.2-.2.3-.1.1-.2.3-.3.4-.1.1-.2.2-.4.2-.1 0-.2 0-.2 0-.1 0-.2 0-.2 0h-.4l-.1-1.3zm.6 0c-.1 0-.1 0 0 0 0 .1 0 .2 0 .2s0-.1 0-.2zm.5-.6s-.1.1-.2.2-.1.1-.2.2c.3-.2.5-.5.8-.7s.5-.5.7-.8c0-.1.1-.1.1-.2l.2-.4c.1-.1.2-.3.3-.4.1-.1.2-.3.2-.3s0-.1.1-.1v-.1c-.2.2-.4.4-.6.6-.2.2-.3.4-.5.7l-.5.7c0 .2-.2.4-.4.6zm.9-11.9c0 .1.1.2.1.3 0 .2 0 .3.1.4.2-.2.4-.3.5-.5.1-.1.2-.2.2-.4 0-.1-.1-.3-.2-.4-.2-.2-.3-.3-.5-.5l-.4.4c0 .1.1.2.1.3.1.3.1.4.1.4zm-.2 4c.1 0 .1-.1.2-.1s.1-.1.2-.1l1-1c0-.1 0-.2.1-.3 0-.1 0-.2 0-.4h-.1l-.2.1h-.5s-.1.1-.2.1-.1.1-.2.2l-.3 1.5zm.1-5.3s0 .1 0 0c0 .1 0 .2 0 .2.1 0 .1 0 0-.2.1.1.1 0 0 0zm.7 5.4c-.1.1 0 .2 0 .2.1-.1.1-.1 0-.2.1 0 .1 0 0 0zm.3-.2s-.1 0 0 0c-.1.1-.1.1 0 0-.1.1-.1.1 0 0 0 .1 0 0 0 0zm.1-2.4h.2s0 0 0-.1 0-.1-.1-.1c.1 0-.1.2-.1.2zm0 2.1c0 .1 0 .2 0 .2.1 0 .1-.1 0-.2.1 0 .1 0 0 0zm1.7 2.9c0 .1-.1.2-.2.3-.1.2-.2.4-.4.5l-.3.5c-.1.1-.1.2-.2.4.1-.1.3-.2.4-.4.1-.1.3-.3.4-.4.1-.1.2-.3.4-.6s.4-.6.7-.8l.7-.8.4-.6s.1-.1.1-.2l.3-.4c.1-.2.2-.3.3-.5s.2-.3.2-.4c0 0 .1-.1.1-.2s.1-.2.2-.3c0-.1.1-.2.1-.3s0-.1 0-.2c-.1.1-.2.2-.3.3s-.2.2-.3.3l-1.3 1.8c-.4.7-.8 1.3-1.3 2zm5.6 6.6c-.5-.1-.9-.3-1.3-.5-.3-.2-.6-.5-.8-.8-.2-.3-.3-.7-.4-1-.1-.4-.1-.9-.2-1.4 0-.3 0-.6 0-.9 0-.3.1-.7.2-1s.2-.6.4-.9c.1-.3.3-.5.5-.8.1-.1.2-.2.3-.3.1-.1.2-.2.3-.3.1-.1.2-.2.4-.3.1-.1.2-.1.4-.1s.4 0 .6 0l.6.2c.6.2 1.2.7 1.6 1.2.4.6.8 1.2.9 1.9.2.7.2 1.4.1 2.1-.1.7-.4 1.3-.8 1.8-.4.4-.8.7-1.4.9-.3.3-.9.3-1.4.2zm-2.1-11.7l-.2.2c.1-.1.3-.2.4-.4.1-.1.3-.3.4-.4l.3-.5c.2-.3.3-.5.5-.8s.3-.6.5-.8l.3-.5s0 0 0-.1c0 0 0 0 0-.1-.1 0-.2 0-.3.1 0 .1-.1.1-.1.2-.1.1-.1.2-.2.4-.1.1-.2.3-.2.4s-.1.1-.1.2c-.1.1-.1.2-.2.3s-.1.2-.3.3c0 0-.1.1-.2.3s-.2.3-.3.4l-.3.5c.1.2 0 .3 0 .3zm0 7.8c0 .1 0 .1 0 0 .1 0 .1-.1.2-.1 0 0 0-.1.1-.1 0-.1.1-.1.1-.2.1-.1.1-.1.2-.2s.2-.2.2-.2l.1-.1.1-.4c-.1.1-.2.1-.3.1-.1 0-.2 0-.3 0-.1-.1-.1-.2 0-.3 0 0 .1-.1 0-.2-.2.1-.3.3-.4.5s-.1.4-.1.6l.1.6zm.1 1.3c0 .1.1.1 0 0 0 .1.1.1.1.2.2-.2.3-.3.5-.4.1-.1.2-.2.2-.4 0-.1.1-.3.1-.4 0-.2 0-.4-.1-.6-.3.3-.6.6-.8.9 0 .1 0 .3 0 .4 0 .1 0 .2 0 .3zm.4 1c.1 0 .1 0 0 0 .1.1.1.1.2.1 0-.1.1-.2.1-.3.1-.1.1-.2.2-.3 0-.1.1-.2.1-.3s0-.2 0-.3c-.1 0-.2.1-.3.2-.1.1-.2.1-.2.2-.1.1-.1.2-.1.3-.1.2 0 .3 0 .4zm0-4.7s0 .1 0 0c-.1.1-.1.1 0 0 .2-.1.5-.4.7-.6.3-.2.5-.4.7-.7-.1 0-.2 0-.3.1-.1.1-.3.2-.4.4-.1.1-.3.3-.4.4-.1.2-.2.3-.3.4zm.3.5l.2-.2.2-.2v-.1l-.2.2-.2.3zm.1 4.5c.1 0 .2 0 .3-.1.1-.1.1-.2.1-.3h-.1s-.1.1-.2.1-.1.2-.1.3zm.4.3c.1.1.1.1.2.1s.1-.1.2-.1c0-.1-.1-.1-.1-.2h-.1c-.1 0-.1.1-.2.2 0-.1 0 0 0 0zm1.3-.4c.2.1.4.1.6-.1.2-.2.3-.5.3-.8.1-.4.1-.8.1-1.2 0-.5 0-.9-.1-1.4 0-.4-.1-.8-.2-1.2-.1-.3-.2-.6-.4-.7-.1-.1-.2-.1-.3-.1s-.2 0-.4 0c-.2.2-.4.4-.5.7s-.2.7-.3 1c-.1.4-.1.8 0 1.1 0 .4.1.8.2 1.1s.2.6.4.9c.1.4.4.6.6.7zm-.8.4c0 .1.1.2.1.2.1.1.2.1.3 0 0 0-.1-.1-.2-.1 0 0-.1-.1-.2-.1zm.7.3H-5h.2c-.1 0-.1 0 0 0zm.6 0c-.1 0-.2 0-.2 0-.1 0-.2 0-.2 0 .4.1.9 0 1.3-.2.3-.2.6-.5.9-.8s.4-.7.5-1.1c.1-.4.1-.8.1-1.3-.1.1-.3.3-.5.4-.1.1-.2.2-.3.3s-.2.2-.2.3c-.1.2-.1.4-.2.5 0 0 0 .1-.1.3 0 .1-.1.2-.1.3s-.1.2-.2.3-.1.2-.2.3-.2.2-.2.3l-.4.4zm.3-6.6s-.1 0 0 0c-.1 0 0 .1 0 0 0 .1 0 0 0 0zm.1.6c.1 0 .1-.1 0 0 .1-.1 0-.1 0 0zm.6 2.1c0 .1 0 .2 0 .3s0 .2 0 .4l.9-.9s0 0 0-.1v-.1s0-.1-.1-.2l-.1-.1c0-.1-.1-.1-.1-.2s-.1-.1-.1-.2l-.1-.1c0-.1-.1-.1-.2 0-.2.1-.3.3-.5.5 0 .2 0 .3 0 .5.2-.1.3.1.3.2zm-.1-2.3s0 .1 0 0c-.1.1 0 .2 0 .2.1 0 .1 0 0-.2.1.1.1 0 0 0zm0 .6c.1-.1.2-.1.2-.2s0-.1-.1-.2l-.1.4zm.2 2.9l.3-.2c.1-.1.2-.2.3-.3s.2-.2.3-.3.1-.2.1-.3c-.1.1-.2.1-.3.2-.1.1-.2.2-.3.3l-.1.1-.1.1c-.1.2-.1.3-.2.4z" class="st0"/></svg>